<svg width="100%" height="100%" viewBox="0 0 23 23" fill="none" xmlns="http://www.w3.org/2000/svg">
<path fill-rule="evenodd" clip-rule="evenodd" d="M3.309 0.950025C3.91729 0.341734 4.74231 0 5.60256 0C6.46282 0 7.28784 0.341734 7.89613 0.950025C8.50442 1.55832 8.84615 2.38334 8.84615 3.24359C8.84615 4.10384 8.50442 4.92886 7.89613 5.53715C7.28784 6.14544 6.46282 6.48718 5.60256 6.48718C4.74231 6.48718 3.91729 6.14544 3.309 5.53715C2.70071 4.92886 2.35897 4.10384 2.35897 3.24359C2.35897 2.38334 2.70071 1.55832 3.309 0.950025ZM5.60256 1.76923C5.21154 1.76923 4.83653 1.92456 4.56003 2.20106C4.28354 2.47756 4.12821 2.85257 4.12821 3.24359C4.12821 3.63461 4.28354 4.00962 4.56003 4.28612C4.83653 4.56261 5.21154 4.71795 5.60256 4.71795C5.99359 4.71795 6.3686 4.56261 6.64509 4.28612C6.92159 4.00962 7.07692 3.63461 7.07692 3.24359C7.07692 2.85257 6.92159 2.47756 6.64509 2.20106C6.3686 1.92456 5.99359 1.76923 5.60256 1.76923ZM15.1039 0.950025C15.7122 0.341734 16.5372 0 17.3974 0C18.2577 0 19.0827 0.341734 19.691 0.950025C20.2993 1.55832 20.641 2.38334 20.641 3.24359C20.641 4.10384 20.2993 4.92886 19.691 5.53715C19.0827 6.14544 18.2577 6.48718 17.3974 6.48718C16.5372 6.48718 15.7122 6.14544 15.1039 5.53715C14.4956 4.92886 14.1538 4.10384 14.1538 3.24359C14.1538 2.38334 14.4956 1.55832 15.1039 0.950025ZM17.3974 1.76923C17.0064 1.76923 16.6314 1.92456 16.3549 2.20106C16.0784 2.47756 15.9231 2.85257 15.9231 3.24359C15.9231 3.63461 16.0784 4.00962 16.3549 4.28612C16.6314 4.56261 17.0064 4.71795 17.3974 4.71795C17.7885 4.71795 18.1635 4.56261 18.44 4.28612C18.7165 4.00962 18.8718 3.63461 18.8718 3.24359C18.8718 2.85257 18.7165 2.47756 18.44 2.20106C18.1635 1.92456 17.7885 1.76923 17.3974 1.76923ZM11.5 9.4359C10.6397 9.4359 9.81473 9.77763 9.20644 10.3859C8.59815 10.9942 8.25641 11.8192 8.25641 12.6795C8.25641 13.5397 8.59815 14.3648 9.20644 14.9731C9.81473 15.5813 10.6397 15.9231 11.5 15.9231C12.3603 15.9231 13.1853 15.5813 13.7936 14.9731C14.4019 14.3648 14.7436 13.5397 14.7436 12.6795C14.7436 11.8192 14.4019 10.9942 13.7936 10.3859C13.1853 9.77763 12.3603 9.4359 11.5 9.4359ZM10.4575 11.637C10.734 11.3605 11.109 11.2051 11.5 11.2051C11.891 11.2051 12.266 11.3605 12.5425 11.637C12.819 11.9135 12.9744 12.2885 12.9744 12.6795C12.9744 13.0705 12.819 13.4455 12.5425 13.722C12.266 13.9985 11.891 14.1538 11.5 14.1538C11.109 14.1538 10.734 13.9985 10.4575 13.722C10.181 13.4455 10.0256 13.0705 10.0256 12.6795C10.0256 12.2885 10.181 11.9135 10.4575 11.637ZM8.0985 19.8934C8.37499 19.6169 8.75 19.4615 9.14103 19.4615H13.859C14.25 19.4615 14.625 19.6169 14.9015 19.8934C15.178 20.1699 15.3333 20.5449 15.3333 20.9359V22.1154C15.3333 22.6039 15.7294 23 16.2179 23C16.7065 23 17.1026 22.6039 17.1026 22.1154V20.9359C17.1026 20.0756 16.7608 19.2506 16.1525 18.6423C15.5442 18.034 14.7192 17.6923 13.859 17.6923H9.14103C8.28077 17.6923 7.45575 18.034 6.84746 18.6423C6.23917 19.2506 5.89744 20.0756 5.89744 20.9359V22.1154C5.89744 22.6039 6.29349 23 6.78205 23C7.27061 23 7.66667 22.6039 7.66667 22.1154V20.9359C7.66667 20.5449 7.822 20.1699 8.0985 19.8934ZM17.3974 8.25641C16.9089 8.25641 16.5128 8.65247 16.5128 9.14103C16.5128 9.62959 16.9089 10.0256 17.3974 10.0256H19.7564C20.1474 10.0256 20.5224 10.181 20.7989 10.4575C21.0754 10.734 21.2308 11.109 21.2308 11.5V12.6795C21.2308 13.168 21.6268 13.5641 22.1154 13.5641C22.6039 13.5641 23 13.168 23 12.6795V11.5C23 10.6397 22.6583 9.81473 22.05 9.20644C21.4417 8.59815 20.6167 8.25641 19.7564 8.25641H17.3974ZM2.20106 10.4575C2.47756 10.181 2.85257 10.0256 3.24359 10.0256H5.60256C6.09112 10.0256 6.48718 9.62959 6.48718 9.14103C6.48718 8.65247 6.09112 8.25641 5.60256 8.25641H3.24359C2.38334 8.25641 1.55832 8.59815 0.950025 9.20644C0.341734 9.81473 0 10.6397 0 11.5V12.6795C0 13.168 0.396056 13.5641 0.884615 13.5641C1.37317 13.5641 1.76923 13.168 1.76923 12.6795V11.5C1.76923 11.109 1.92456 10.734 2.20106 10.4575Z" fill="currentColor"/>
</svg>
