<svg width="100%" height="100%" viewBox="0 0 25 25" fill="none" xmlns="http://www.w3.org/2000/svg">
<path d="M6.75065 2.43766C6.75065 2.05637 6.59918 1.6907 6.32957 1.42108C6.05995 1.15147 5.69428 1 5.31299 1H2.43766C2.05637 1 1.6907 1.15147 1.42108 1.42108C1.15147 1.6907 1 2.05637 1 2.43766V22.5649C1 22.9462 1.15147 23.3119 1.42108 23.5815C1.6907 23.8511 2.05637 24.0026 2.43766 24.0026H5.31299C5.69428 24.0026 6.05995 23.8511 6.32957 23.5815C6.59918 23.3119 6.75065 22.9462 6.75065 22.5649M6.75065 2.43766V22.5649M6.75065 2.43766C6.75065 2.05637 6.90211 1.6907 7.17173 1.42108C7.44134 1.15147 7.80702 1 8.18831 1H11.0636C11.4449 1 11.8106 1.15147 12.0802 1.42108C12.3498 1.6907 12.5013 2.05637 12.5013 2.43766V22.5649C12.5013 22.9462 12.3498 23.3119 12.0802 23.5815C11.8106 23.8511 11.4449 24.0026 11.0636 24.0026H8.18831C7.80702 24.0026 7.44134 23.8511 7.17173 23.5815C6.90211 23.3119 6.75065 22.9462 6.75065 22.5649M1 6.75065H6.75065M6.75065 18.2519H12.5013M13.939 8.18831L19.6896 6.75065M16.8143 18.2513L22.4542 16.8424M13.6558 1.80585L16.7957 1.04389C17.6037 0.849809 18.4246 1.31705 18.6388 2.09626L23.9509 21.3868C24.0447 21.74 24.0032 22.1154 23.8346 22.4396C23.666 22.7637 23.3824 23.0133 23.0395 23.1393L22.8483 23.1983L19.7084 23.9602C18.9004 24.1543 18.0795 23.6871 17.8653 22.9079L12.5532 3.61731C12.4594 3.26415 12.5009 2.88872 12.6695 2.56455C12.8381 2.24039 13.1217 1.99085 13.4646 1.8648L13.6558 1.80585Z" stroke="currentColor" stroke-width="1.5" stroke-linecap="round" stroke-linejoin="round"/>
</svg>
