<svg width="100%" height="100%" viewBox="0 0 22 22" fill="none" xmlns="http://www.w3.org/2000/svg">
<path fill-rule="evenodd" clip-rule="evenodd" d="M10.7227 0.502837C8.56701 -0.167612 5.933 -0.167612 3.77727 0.502837C2.69585 0.839166 1.77428 1.33162 1.10953 1.95146C0.443031 2.57292 0 3.3603 0 4.25C0 4.36055 0.0068403 4.46952 0.0200997 4.57679C0.00695565 4.63239 0 4.69038 0 4.75V9.75V15.5833C0 16.2982 0.298797 16.8734 0.758835 17.334C1.19619 17.7719 1.78833 18.117 2.4226 18.4248C2.79526 18.6056 3.24395 18.4501 3.42477 18.0774C3.60558 17.7047 3.45006 17.2561 3.0774 17.0752C2.48367 16.7872 2.07581 16.53 1.82016 16.274C1.5872 16.0407 1.5 15.8305 1.5 15.5833V11.9536C1.79273 12.1285 2.11261 12.2863 2.44343 12.4345C2.82146 12.6038 3.26517 12.4346 3.43448 12.0566C3.6038 11.6785 3.4346 11.2348 3.05657 11.0655C2.46045 10.7985 2.05242 10.5606 1.79856 10.326C1.56798 10.1129 1.5 9.93852 1.5 9.75V6.8761C2.11719 7.34352 2.8939 7.72243 3.77727 7.99716C5.933 8.66761 8.56701 8.66761 10.7227 7.99716C11.8041 7.66083 12.7257 7.16838 13.3905 6.54854C14.057 5.92708 14.5 5.1397 14.5 4.25C14.5 3.3603 14.057 2.57292 13.3905 1.95146C12.7257 1.33162 11.8041 0.839166 10.7227 0.502837ZM4.22273 1.93516C6.08834 1.35495 8.41166 1.35495 10.2773 1.93516C11.2065 2.22417 11.9099 2.62188 12.3675 3.04854C12.8234 3.47358 13 3.88904 13 4.25C13 4.61096 12.8234 5.02642 12.3675 5.45146C11.9099 5.87812 11.2065 6.27583 10.2773 6.56484C8.41166 7.14505 6.08834 7.14505 4.22273 6.56484C3.29348 6.27583 2.59005 5.87812 2.13247 5.45146C1.67664 5.02642 1.5 4.61096 1.5 4.25C1.5 3.88904 1.67664 3.47358 2.13247 3.04854C2.59005 2.62188 3.29348 2.22417 4.22273 1.93516ZM9.33939 9.94766C10.6348 9.34979 12.3717 9 14.25 9C16.1283 9 17.8652 9.34979 19.1606 9.94766C20.3923 10.5161 21.5 11.4527 21.5 12.75V17.3214C21.5 18.6839 20.4662 19.7388 19.1963 20.4088C17.8921 21.0969 16.1421 21.5 14.25 21.5C12.3579 21.5 10.6079 21.0969 9.30371 20.4088C8.03382 19.7388 7 18.6839 7 17.3214V12.75C7 11.4527 8.10767 10.5161 9.33939 9.94766ZM20 17.3214V15.0878C19.7358 15.2631 19.4517 15.418 19.1606 15.5523C17.8652 16.1502 16.1283 16.5 14.25 16.5C12.3717 16.5 10.6348 16.1502 9.33939 15.5523C9.04834 15.418 8.76422 15.2631 8.5 15.0878V17.3214C8.5 17.8516 8.92109 18.5109 10.0037 19.0821C11.0519 19.6351 12.5519 20 14.25 20C15.9481 20 17.4481 19.6351 18.4963 19.0821C19.5789 18.5109 20 17.8516 20 17.3214ZM9.96798 14.1904C8.84724 13.6731 8.5 13.1097 8.5 12.75C8.5 12.3903 8.84724 11.8269 9.96798 11.3096C11.0251 10.8217 12.5382 10.5 14.25 10.5C15.9618 10.5 17.4749 10.8217 18.532 11.3096C19.6528 11.8269 20 12.3903 20 12.75C20 13.1097 19.6528 13.6731 18.532 14.1904C17.4749 14.6783 15.9618 15 14.25 15C12.5382 15 11.0251 14.6783 9.96798 14.1904Z" fill="currentColor"/>
</svg>
