<svg width="100%" height="100%" viewBox="0 0 24 24" fill="none" xmlns="http://www.w3.org/2000/svg">
<path fill-rule="evenodd" clip-rule="evenodd" d="M12.2775 1.00802C9.93085 0.330335 7.06914 0.330335 4.72255 1.00802C3.54581 1.34785 2.52776 1.84929 1.78343 2.49375C1.03957 3.13781 0.5 3.99308 0.5 4.99976V10.8328V16.6664C0.5 17.5251 0.891866 18.1989 1.45067 18.7153C1.97844 19.2031 2.6844 19.5809 3.42458 19.9124C3.92862 20.1381 4.52023 19.9126 4.74598 19.4085C4.97173 18.9045 4.74613 18.3129 4.24209 18.0871C3.5496 17.777 3.08889 17.5061 2.80816 17.2466C2.55847 17.0158 2.5 16.8438 2.5 16.6664V13.6203C2.79423 13.785 3.10624 13.9362 3.42458 14.0787C3.92862 14.3045 4.52023 14.0789 4.74598 13.5749C4.97173 13.0708 4.74613 12.4792 4.24209 12.2535C3.5496 11.9433 3.08889 11.6724 2.80816 11.4129C2.55847 11.1822 2.5 11.0101 2.5 10.8328V8.03162C3.13376 8.4284 3.88827 8.75056 4.72255 8.99149C7.06914 9.66918 9.93085 9.66918 12.2775 8.99149C13.4542 8.65166 14.4722 8.15022 15.2166 7.50576C15.9604 6.8617 16.5 6.00643 16.5 4.99976C16.5 3.99308 15.9604 3.13781 15.2166 2.49375C14.4722 1.84929 13.4542 1.34785 12.2775 1.00802ZM3.09257 5.99375C2.62776 5.59131 2.5 5.24375 2.5 4.99976C2.5 4.75576 2.62776 4.4082 3.09257 4.00576C3.55691 3.60372 4.28886 3.21499 5.27745 2.92949C7.26152 2.35651 9.73848 2.35651 11.7225 2.92949C12.7111 3.21499 13.4431 3.60372 13.9074 4.00576C14.3722 4.4082 14.5 4.75576 14.5 4.99976C14.5 5.24375 14.3722 5.59131 13.9074 5.99375C13.4431 6.39579 12.7111 6.78452 11.7225 7.07002C9.73848 7.643 7.26152 7.643 5.27745 7.07002C4.28886 6.78452 3.55691 6.39579 3.09257 5.99375ZM10.1029 10.9634C11.5358 10.247 13.4453 9.83276 15.5 9.83276C17.5547 9.83276 19.4642 10.247 20.8971 10.9634C22.2702 11.6499 23.5 12.7834 23.5 14.3328V18.9994C23.5 20.5483 22.27 21.6817 20.8972 22.3683C19.4644 23.0849 17.5548 23.4994 15.5 23.4994C13.4452 23.4994 11.5356 23.0849 10.1028 22.3683C8.72996 21.6817 7.5 20.5483 7.5 18.9994V14.3328C7.5 12.7834 8.72982 11.6499 10.1029 10.9634ZM21.5 18.9994V17.3641C21.3047 17.4867 21.1025 17.5994 20.8971 17.7021C19.4642 18.4186 17.5547 18.8328 15.5 18.8328C13.4453 18.8328 11.5358 18.4186 10.1029 17.7021C9.89752 17.5994 9.69534 17.4867 9.5 17.3642V18.9994C9.5 19.3826 9.83688 19.9991 10.9974 20.5795C12.098 21.13 13.6885 21.4994 15.5 21.4994C17.3115 21.4994 18.902 21.13 20.0026 20.5795C21.1631 19.9991 21.5 19.3826 21.5 18.9994ZM10.9973 15.9133C9.83702 15.3331 9.5 14.7166 9.5 14.3328C9.5 13.949 9.83702 13.3324 10.9973 12.7523C12.0979 12.202 13.6884 11.8328 15.5 11.8328C17.3116 11.8328 18.9021 12.202 20.0027 12.7523C21.163 13.3324 21.5 13.949 21.5 14.3328C21.5 14.7166 21.163 15.3331 20.0027 15.9133C18.9021 16.4636 17.3116 16.8328 15.5 16.8328C13.6884 16.8328 12.0979 16.4636 10.9973 15.9133Z" fill="currentColor"/>
</svg>
