<svg width="100%" height="100%" viewBox="0 0 25 25" fill="none" xmlns="http://www.w3.org/2000/svg">
<path fill-rule="evenodd" clip-rule="evenodd" d="M3.625 1.5C3.06141 1.5 2.52091 1.72388 2.1224 2.1224C1.72388 2.52091 1.5 3.06141 1.5 3.625V5.75H5.75V1.5H3.625ZM3.625 0C2.66359 0 1.74156 0.381918 1.06174 1.06174C0.381918 1.74156 0 2.66359 0 3.625V20.875C0 21.8364 0.381918 22.7584 1.06174 23.4383C1.74156 24.1181 2.66359 24.5 3.625 24.5H20.875C21.8364 24.5 22.7584 24.1181 23.4383 23.4383C24.1181 22.7584 24.5 21.8364 24.5 20.875V3.625C24.5 2.66359 24.1181 1.74156 23.4383 1.06174C22.7584 0.381918 21.8364 0 20.875 0H3.625ZM7.25 1.5V11.5H17.25V1.5H7.25ZM18.75 1.5V5.75H23V3.625C23 3.06141 22.7761 2.52091 22.3776 2.1224C21.9791 1.72388 21.4386 1.5 20.875 1.5H18.75ZM23 7.25H18.75V11.5H23V7.25ZM23 13H18.75V17.25H23V13ZM23 18.75H18.75V23H20.875C21.4386 23 21.9791 22.7761 22.3776 22.3776C22.7761 21.9791 23 21.4386 23 20.875V18.75ZM17.25 23V13H7.25V23H17.25ZM5.75 23V18.75H1.5V20.875C1.5 21.4386 1.72388 21.9791 2.1224 22.3776C2.52091 22.7761 3.06141 23 3.625 23H5.75ZM1.5 17.25H5.75V13H1.5V17.25ZM1.5 11.5H5.75V7.25H1.5V11.5Z" fill="currentColor"/>
</svg>
