<svg width="100%" height="100%" viewBox="0 0 24 22" fill="none" xmlns="http://www.w3.org/2000/svg">
<path fill-rule="evenodd" clip-rule="evenodd" d="M3.82572 2.31951C4.30306 1.93609 4.90102 1.7346 5.51306 1.75092C6.1251 1.76724 6.71146 2.00033 7.16768 2.40865C7.45225 2.66333 7.88275 2.66353 8.16754 2.4091C8.62386 2.00142 9.21004 1.76889 9.82173 1.75288C10.4334 1.73688 11.031 1.93844 11.508 2.32169C11.985 2.70494 12.3106 3.24501 12.4267 3.84579C12.5429 4.44657 12.4421 5.06908 12.1423 5.60251C11.9474 5.94926 12.0571 6.38782 12.3923 6.60197C12.7348 6.82079 13.0208 7.1173 13.2272 7.46742C13.4336 7.81754 13.5545 8.2114 13.5801 8.61701C13.6057 9.02262 13.5353 9.42856 13.3746 9.80184C13.2138 10.1751 12.9673 10.5052 12.6551 10.7654C12.4362 10.9477 12.3395 11.2383 12.4055 11.5154C12.4959 11.8951 12.4992 12.2904 12.415 12.6715C12.3308 13.0527 12.1613 13.4098 11.9194 13.7161C11.6774 14.0224 11.3692 14.2699 11.0179 14.4401C10.6666 14.6102 10.2811 14.6985 9.89077 14.6984H8.42188V11.307L10.4251 9.30377C10.718 9.01087 10.718 8.536 10.4251 8.24311C10.1322 7.95021 9.65735 7.95021 9.36446 8.24311L8.42188 9.18569V6.55078C8.42188 6.13657 8.08609 5.80078 7.67188 5.80078C7.25766 5.80078 6.92188 6.13657 6.92188 6.55078V10.3007L5.97564 9.35444C5.68275 9.06154 5.20788 9.06154 4.91498 9.35444C4.62209 9.64733 4.62209 10.1222 4.91498 10.4151L6.92188 12.422V14.6984H5.4556L5.28261 14.6935C4.9094 14.6701 4.54566 14.566 4.21653 14.3884C3.88429 14.209 3.59539 13.959 3.37015 13.656C3.14491 13.353 2.98879 13.0043 2.91278 12.6345C2.83677 12.2647 2.84272 11.8827 2.9302 11.5154C2.99622 11.2382 2.89949 10.9476 2.68056 10.7653C2.36826 10.5052 2.12169 10.1752 1.96089 9.80191C1.80009 9.42866 1.72958 9.02275 1.7551 8.61714C1.78061 8.21153 1.90143 7.81765 2.10773 7.4675C2.31403 7.11734 2.60001 6.82077 2.94244 6.60188C3.27768 6.38758 3.38724 5.94879 3.19207 5.60206C2.89174 5.06853 2.79059 4.44569 2.90663 3.84453C3.02268 3.24337 3.34839 2.70293 3.82572 2.31951ZM6.92188 16.1984H5.44495C5.44362 16.1984 5.4423 16.1984 5.44097 16.1984C5.4352 16.1984 5.42943 16.1983 5.42366 16.1981L5.22804 16.1926C5.22052 16.1924 5.21301 16.1921 5.2055 16.1916C4.60982 16.1567 4.02902 15.9918 3.50395 15.7083C2.97889 15.4248 2.5223 15.0298 2.16632 14.5509C1.81035 14.072 1.56361 13.521 1.44349 12.9365C1.35368 12.4995 1.33627 12.0518 1.39098 11.6111C1.05179 11.2585 0.777834 10.847 0.583298 10.3954C0.329165 9.80551 0.217735 9.16401 0.258057 8.52297C0.298378 7.88194 0.489314 7.25945 0.81536 6.70606C1.02907 6.34333 1.29688 6.017 1.60845 5.73776C1.35502 5.0451 1.29247 4.29249 1.43382 3.56022C1.61722 2.61014 2.13198 1.75603 2.88636 1.15007C3.64075 0.544107 4.58577 0.225655 5.55305 0.251453C6.30922 0.271621 7.04059 0.501148 7.66829 0.908678C8.29589 0.502009 9.02687 0.273171 9.78249 0.253398C10.7492 0.228101 11.6936 0.546646 12.4475 1.15234C13.2014 1.75803 13.7159 2.61157 13.8994 3.56105C14.0409 4.29282 13.9788 5.04498 13.7259 5.73738C14.0376 6.01659 14.3056 6.34294 14.5194 6.70571C14.8456 7.25904 15.0367 7.8815 15.0771 8.52254C15.1176 9.16358 15.0063 9.80512 14.7523 10.3951C14.5578 10.8467 14.2839 11.2583 13.9447 11.611C14.0019 12.0716 13.9803 12.5397 13.8797 12.9951C13.7466 13.5975 13.4788 14.1619 13.0964 14.646C12.714 15.13 12.2269 15.5212 11.6717 15.7901C11.1165 16.0589 10.5076 16.1986 9.89077 16.1984H8.42188V20.9997C8.42188 21.4139 8.08609 21.7497 7.67188 21.7497C7.25766 21.7497 6.92188 21.4139 6.92188 20.9997V16.1984ZM17.0913 2.68647C16.7984 2.39357 16.3235 2.39357 16.0306 2.68647C15.7377 2.97936 15.7377 3.45423 16.0306 3.74713L18.6292 6.3457L17.337 6.9918C17.1213 7.09961 16.9707 7.30451 16.9321 7.54248C16.8935 7.78045 16.9716 8.02248 17.1421 8.19295L20.7298 11.7807L18.5467 12.5084C18.3001 12.5906 18.1136 12.7946 18.0539 13.0476C17.9942 13.3006 18.0697 13.5664 18.2535 13.7502L21.419 16.9157H13.2266C12.8123 16.9157 12.4766 17.2515 12.4766 17.6657C12.4766 18.0799 12.8123 18.4157 13.2266 18.4157H14.6992V21.0004C14.6992 21.4146 15.035 21.7504 15.4492 21.7504C15.8634 21.7504 16.1992 21.4146 16.1992 21.0004V18.4157H23.2297C23.533 18.4157 23.8065 18.233 23.9226 17.9527C24.0387 17.6725 23.9745 17.3499 23.76 17.1354L20.1723 13.5477L22.3554 12.82C22.602 12.7378 22.7884 12.5337 22.8481 12.2808C22.9079 12.0278 22.8323 11.7619 22.6485 11.5781L18.9385 7.86808L20.2307 7.22198C20.4463 7.11417 20.597 6.90927 20.6356 6.6713C20.6742 6.43333 20.5961 6.19131 20.4256 6.02083L17.0913 2.68647Z" fill="currentColor"/>
</svg>
