<svg width="100%" height="100%" viewBox="0 0 25 24" fill="none" xmlns="http://www.w3.org/2000/svg">
<path fill-rule="evenodd" clip-rule="evenodd" d="M8.13692 0.0541266C8.36068 -0.0358236 8.61404 -0.0126921 8.8178 0.11629L13.8089 3.27564C15.0541 2.82715 16.5489 2.58824 18.3112 2.58824H21.1938C21.608 2.58824 21.9438 2.92402 21.9438 3.33824V5.00247C21.9438 5.01482 21.9435 5.02717 21.9429 5.0395C21.8703 6.50837 21.7961 7.85691 21.5365 9.05883H22.4722C23.0131 9.05883 23.5299 9.27653 23.9094 9.66091C24.2886 10.045 24.5 10.5639 24.5 11.1029V11.75C24.5 12.3941 24.2466 13.2046 23.909 14.0058C23.5604 14.8331 23.0808 15.7447 22.5457 16.6239C22.0104 17.5035 21.4109 18.365 20.8171 19.0897C20.3503 19.6593 19.8614 20.1764 19.3889 20.5473V21.4559C19.3889 21.995 19.1775 22.5139 18.7983 22.8979C18.4188 23.2823 17.902 23.5 17.3611 23.5H7.13889C6.59799 23.5 6.0812 23.2823 5.70168 22.8979C5.32247 22.5139 5.11111 21.995 5.11111 21.4559V20.5521C4.58947 20.1555 4.06691 19.617 3.57537 19.0232C2.96665 18.2879 2.37346 17.4286 1.85315 16.5566C1.33306 15.6851 0.877566 14.787 0.549602 13.9712C0.230639 13.1778 0 12.3845 0 11.75V11.1029C0 10.5639 0.211355 10.045 0.590564 9.66091C0.970091 9.27653 1.48688 9.05883 2.02778 9.05883H2.73194C2.6408 8.46069 2.58212 7.85773 2.55624 7.25264C2.55578 7.24196 2.55556 7.23128 2.55556 7.22059V5.92647C2.55556 5.51226 2.89134 5.17647 3.30556 5.17647H5.54806C5.89207 5.17647 6.22368 5.188 6.54303 5.21083L7.68852 0.570265C7.74632 0.336134 7.91317 0.144077 8.13692 0.0541266ZM7.16694 6.78521C6.68078 6.71458 6.14251 6.67647 5.54806 6.67647H4.05556V7.20437C4.0828 7.82623 4.1481 8.44557 4.25099 9.05883H6.3902C6.41125 8.23535 6.68426 7.44168 7.16694 6.78521ZM3.75565 10.5588C3.67083 10.5731 3.58667 10.5725 3.50599 10.5588H2.02778C1.8909 10.5588 1.75767 10.6138 1.65794 10.7148C1.55789 10.8161 1.5 10.9556 1.5 11.1029V11.75C1.5 12.0861 1.6388 12.6591 1.94135 13.4117C2.23491 14.142 2.65301 14.9698 3.14125 15.788C3.62927 16.6059 4.17913 17.4003 4.73083 18.0667C5.28995 18.7421 5.82001 19.2482 6.26214 19.528C6.47941 19.6655 6.61111 19.9047 6.61111 20.1618V21.4559C6.61111 21.6032 6.669 21.7427 6.76905 21.844C6.86878 21.945 7.00201 22 7.13889 22H17.3611C17.498 22 17.6312 21.945 17.7309 21.844C17.831 21.7427 17.8889 21.6032 17.8889 21.4559V20.1618C17.8889 19.9047 18.0205 19.6656 18.2377 19.5281C18.6084 19.2934 19.1037 18.814 19.6568 18.139C20.199 17.4773 20.7588 16.6748 21.2644 15.844C21.7702 15.0128 22.2131 14.1678 22.5267 13.4234C22.8514 12.6528 23 12.0764 23 11.75V11.1029C23 10.9556 22.9421 10.8161 22.8421 10.7148C22.7423 10.6138 22.6091 10.5588 22.4722 10.5588H20.5725C20.5608 10.5591 20.5492 10.5591 20.5376 10.5588H3.75565ZM12.7757 9.05883H7.89098C7.91642 8.43424 8.17258 7.84222 8.60821 7.40102C8.73532 7.27228 8.87482 7.15929 9.02378 7.0632C9.07602 7.03965 9.12554 7.01016 9.17124 6.97529C9.52554 6.78065 9.92452 6.67647 10.3333 6.67647C10.5141 6.67647 10.6929 6.69684 10.8668 6.73639C10.9026 6.74833 10.939 6.75747 10.9757 6.76383C11.3808 6.87603 11.7549 7.09362 12.0585 7.40102C12.4941 7.84222 12.7502 8.43424 12.7757 9.05883ZM14.2765 9.05883H19.996C20.2784 7.9625 20.3615 6.6473 20.4438 4.98395V4.08824H18.3112C15.4683 4.08824 13.597 4.75417 12.3977 5.76583C12.6602 5.92871 12.9049 6.12333 13.1258 6.34712C13.8404 7.07083 14.2505 8.04211 14.2765 9.05883ZM10.8175 5.20659C11.2195 4.76782 11.6853 4.37872 12.2175 4.04351L8.89529 1.94059L8.03694 5.41789C8.24122 5.46174 8.43905 5.51146 8.6305 5.56697C9.15677 5.31249 9.73781 5.17647 10.3333 5.17647C10.4961 5.17647 10.6577 5.18663 10.8175 5.20659Z" fill="currentColor"/>
</svg>
