<svg width="100%" height="100%" viewBox="0 0 25 23" fill="none" xmlns="http://www.w3.org/2000/svg">
<path fill-rule="evenodd" clip-rule="evenodd" d="M5.34975 1.79932C6.47345 1.41239 7.68679 1.40032 8.81745 1.76471C9.94836 2.12919 10.9417 2.85277 11.6531 3.83589C11.7937 4.0302 12.0188 4.14554 12.2587 4.14621C12.4985 4.14687 12.7242 4.03279 12.8659 3.83927C13.3335 3.20057 13.9234 2.66928 14.5979 2.2776C15.2723 1.88595 16.017 1.64204 16.7856 1.56024C17.5542 1.47845 18.3311 1.56039 19.0681 1.80128C19.8051 2.04219 20.4872 2.43717 21.0711 2.96265C21.6551 3.48818 22.1284 4.13299 22.4604 4.85742C22.7924 5.58188 22.9755 6.36975 22.9977 7.17155C23.0199 7.97336 22.8807 8.77083 22.5892 9.51382C22.309 10.2281 21.8942 10.8766 21.37 11.4225C21.3472 11.4408 21.3252 11.4606 21.3042 11.482L12.2607 20.6802L9.09704 17.4627C8.80663 17.1673 8.33178 17.1633 8.03642 17.4537C7.74106 17.7441 7.73705 18.219 8.02746 18.5143L11.726 22.2758C11.867 22.4192 12.0596 22.5 12.2608 22.5C12.4619 22.5 12.6546 22.4192 12.7956 22.2758L22.3058 12.6028C22.3286 12.5846 22.3506 12.5649 22.3717 12.5437C23.0712 11.838 23.6203 10.9928 23.9856 10.0616C24.3509 9.13038 24.5249 8.13244 24.4971 7.13002C24.4694 6.1276 24.2404 5.14124 23.824 4.23255C23.4076 3.32382 22.8124 2.51168 22.0745 1.84766C21.3366 1.18359 20.4719 0.682031 19.5341 0.375516C18.5964 0.0689841 17.6065 -0.0355919 16.6269 0.0686662C15.6473 0.172922 14.7001 0.483637 13.8446 0.980475C13.2616 1.31907 12.7299 1.73901 12.264 2.22664C11.4422 1.35663 10.4174 0.704368 9.27757 0.337028C7.83796 -0.126941 6.2918 -0.111494 4.86138 0.38105C3.43124 0.873501 2.19302 1.81649 1.32134 3.07128C0.44984 4.32579 -0.0116352 5.82881 0.000222932 7.36549C0.00341929 7.77969 0.341787 8.11288 0.755988 8.10968C1.17019 8.10648 1.50337 7.76812 1.50018 7.35392C1.49069 6.12417 1.86022 4.92468 2.55325 3.92707C3.24609 2.92974 4.22578 2.18635 5.34975 1.79932ZM9.86614 6.5272C9.76859 6.21364 9.47839 6 9.15 6C8.82161 6 8.53141 6.21364 8.43386 6.5272L6.12081 13.962L4.18679 10.8538C4.0499 10.6338 3.80913 10.5 3.55 10.5H0.75C0.335786 10.5 0 10.8358 0 11.25C0 11.6642 0.335786 12 0.75 12H3.13333L5.71321 16.1462C5.86823 16.3954 6.15431 16.5312 6.44536 16.4939C6.73641 16.4566 6.97897 16.253 7.06614 15.9728L9.15 9.27469L9.83386 11.4728C9.93141 11.7864 10.2216 12 10.55 12H14.75C15.1642 12 15.5 11.6642 15.5 11.25C15.5 10.8358 15.1642 10.5 14.75 10.5H11.1021L9.86614 6.5272Z" fill="currentColor"/>
</svg>
