<svg width="100%" height="100%" viewBox="0 0 23 23" fill="none" xmlns="http://www.w3.org/2000/svg">
<path fill-rule="evenodd" clip-rule="evenodd" d="M10.9535 0.0606412C11.1421 -0.0202137 11.3557 -0.0202137 11.5443 0.0606412L19.711 3.56064C20.0917 3.72381 20.2681 4.16472 20.1049 4.54544C19.9417 4.92616 19.5008 5.10253 19.1201 4.93936L11.2489 1.56598L3.37766 4.93936C2.99694 5.10253 2.55603 4.92616 2.39286 4.54544C2.2297 4.16472 2.40606 3.72381 2.78678 3.56064L10.9535 0.0606412ZM0.75 8.16699C0.335786 8.16699 0 8.50278 0 8.91699C0 9.33121 0.335786 9.66699 0.75 9.66699H1.16797V21H0.75C0.335786 21 0 21.3358 0 21.75C0 22.1642 0.335786 22.5 0.75 22.5H1.8957C1.9031 22.5002 1.91052 22.5003 1.91797 22.5003C1.92542 22.5003 1.93284 22.5002 1.94024 22.5H20.5598L20.5721 22.5003L20.582 22.5003C20.5895 22.5003 20.5969 22.5002 20.6043 22.5H21.75C22.1642 22.5 22.5 22.1642 22.5 21.75C22.5 21.3358 22.1642 21 21.75 21H21.332V9.66699H21.75C22.1642 9.66699 22.5 9.33121 22.5 8.91699C22.5 8.50278 22.1642 8.16699 21.75 8.16699H20.582H1.91797H0.75ZM19.832 9.66699V21H2.66797V9.66699H19.832ZM7.33203 13.583C7.33203 13.1688 6.99624 12.833 6.58203 12.833C6.16782 12.833 5.83203 13.1688 5.83203 13.583V17.083C5.83203 17.4972 6.16782 17.833 6.58203 17.833C6.99624 17.833 7.33203 17.4972 7.33203 17.083V13.583ZM11.25 12.833C11.6642 12.833 12 13.1688 12 13.583V17.083C12 17.4972 11.6642 17.833 11.25 17.833C10.8358 17.833 10.5 17.4972 10.5 17.083V13.583C10.5 13.1688 10.8358 12.833 11.25 12.833ZM16.668 13.583C16.668 13.1688 16.3322 12.833 15.918 12.833C15.5038 12.833 15.168 13.1688 15.168 13.583V17.083C15.168 17.4972 15.5038 17.833 15.918 17.833C16.3322 17.833 16.668 17.4972 16.668 17.083V13.583Z" fill="currentColor"/>
</svg>
