<svg width="100%" height="100%" viewBox="0 0 24 22" fill="none" xmlns="http://www.w3.org/2000/svg">
<path fill-rule="evenodd" clip-rule="evenodd" d="M1.94257 1.94257C3.18638 0.698764 4.87334 0 6.63235 0C8.39136 0 10.0783 0.698764 11.3221 1.94257C12.5659 3.18638 13.2647 4.87334 13.2647 6.63235C13.2647 8.39136 12.5659 10.0783 11.3221 11.3221C10.2565 12.3878 8.86562 13.0533 7.38281 13.2221V16.4707H12.5147C12.9289 16.4707 13.2647 16.8065 13.2647 17.2207C13.2647 17.6349 12.9289 17.9707 12.5147 17.9707H7.38281V20.7499C7.38281 21.1642 7.04703 21.4999 6.63281 21.4999C6.2186 21.4999 5.88281 21.1642 5.88281 20.7499V17.9707H0.75C0.335786 17.9707 0 17.6349 0 17.2207C0 16.8065 0.335786 16.4707 0.75 16.4707H5.88281V13.2222C4.39966 13.0536 3.00841 12.388 1.94257 11.3221C0.698764 10.0783 0 8.39136 0 6.63235C0 4.87334 0.698764 3.18638 1.94257 1.94257ZM10.2615 10.2615C9.30112 11.2218 7.99937 11.7623 6.64148 11.7647L6.63281 11.7646L6.62402 11.7647C5.26584 11.7625 3.96377 11.222 3.00323 10.2615C2.04073 9.29897 1.5 7.99354 1.5 6.63235C1.5 5.27117 2.04073 3.96573 3.00323 3.00323C3.96573 2.04073 5.27117 1.5 6.63235 1.5C7.99354 1.5 9.29897 2.04073 10.2615 3.00323C11.224 3.96573 11.7647 5.27117 11.7647 6.63235C11.7647 7.99354 11.224 9.29897 10.2615 10.2615ZM14.9789 8.29812C15.1973 7.94612 15.6596 7.83778 16.0116 8.05612C16.2301 8.19164 16.4412 8.34016 16.6436 8.50118L21.2923 3.85254H17.2188C16.8045 3.85254 16.4688 3.51675 16.4688 3.10254C16.4688 2.68833 16.8045 2.35254 17.2188 2.35254H23.1011H23.1016C23.1018 2.35254 23.102 2.35254 23.1022 2.35254C23.2944 2.35235 23.4866 2.42557 23.6333 2.57221C23.7913 2.73025 23.8641 2.94128 23.8516 3.14811V8.98489C23.8516 9.39911 23.5158 9.73489 23.1016 9.73489C22.6873 9.73489 22.3516 9.39911 22.3516 8.98489V4.91458L17.7045 9.56161C18.6344 10.7297 19.1478 12.1845 19.1478 13.6922C19.1478 15.4512 18.449 17.1381 17.2052 18.3819C16.4824 19.1047 15.61 19.6434 14.6608 19.9679C14.2688 20.1019 13.8425 19.8928 13.7085 19.5009C13.5745 19.1089 13.7836 18.6826 14.1756 18.5486C14.9102 18.2974 15.5852 17.8806 16.1445 17.3213C17.107 16.3588 17.6478 15.0533 17.6478 13.6922C17.6478 12.331 17.107 11.0255 16.1445 10.063C15.8635 9.78198 15.5532 9.53693 15.2209 9.3308C14.8689 9.11246 14.7606 8.65011 14.9789 8.29812Z" fill="currentColor"/>
</svg>
