<svg width="100%" height="100%" viewBox="-3 -2 25 25" fill="none" xmlns="http://www.w3.org/2000/svg">
<path fill-rule="evenodd" clip-rule="evenodd" d="M5.25 1.5C4.25544 1.5 3.30161 1.89509 2.59835 2.59835C1.89509 3.30161 1.5 4.25544 1.5 5.25V11H9V5.25C9 4.25544 8.60491 3.30161 7.90165 2.59835C7.19839 1.89509 6.24456 1.5 5.25 1.5ZM0 5.25V11.75V18.75C0 19.1642 0.335786 19.5 0.75 19.5C1.16421 19.5 1.5 19.1642 1.5 18.75V12.5H9V18.75C9 19.1642 9.33579 19.5 9.75 19.5C10.1642 19.5 10.5 19.1642 10.5 18.75V11.75V5.25C10.5 3.85761 9.94688 2.52226 8.96231 1.53769C7.97774 0.553125 6.64239 0 5.25 0C3.85761 0 2.52226 0.553125 1.53769 1.53769C0.553125 2.52226 0 3.85761 0 5.25ZM19.5 0.75C19.5 0.335786 19.1642 0 18.75 0C18.3358 0 18 0.335786 18 0.75V18.75C18 19.1642 18.3358 19.5 18.75 19.5C19.1642 19.5 19.5 19.1642 19.5 18.75V0.75Z" fill="currentColor"/>
</svg>
