<svg width="100%" height="100%" viewBox="0 0 25 24" fill="none" xmlns="http://www.w3.org/2000/svg">
<path fill-rule="evenodd" clip-rule="evenodd" d="M22.9325 0.111256C23.1544 0.247755 23.2895 0.489555 23.2895 0.750001V9.91634C23.2895 10.3306 22.9537 10.6663 22.5395 10.6663C22.1253 10.6663 21.7895 10.3306 21.7895 9.91634V1.96876L16.0263 4.87807V11.1385C16.0263 11.5527 15.6905 11.8885 15.2763 11.8885C14.8621 11.8885 14.5263 11.5527 14.5263 11.1385V4.87807L8.76316 1.96876V16.1768L11.9827 17.8021C12.3525 17.9887 12.5009 18.4398 12.3143 18.8096C12.1276 19.1793 11.6765 19.3278 11.3068 19.1411L8.01316 17.4785L1.08799 20.9744C0.855485 21.0918 0.57874 21.0801 0.356928 20.9436C0.135117 20.8071 0 20.5653 0 20.3049V4.41654C0 4.1335 0.159343 3.87456 0.412014 3.74701L7.67517 0.0804742C7.88772 -0.0268238 8.13859 -0.0268238 8.35114 0.0804742L15.2763 3.57639L22.2015 0.0804742C22.434 -0.0368952 22.7107 -0.0252425 22.9325 0.111256ZM7.26316 16.1768V1.96876L1.5 4.87807V19.0861L7.26316 16.1768ZM17.6812 14.1902C18.402 13.704 19.2502 13.444 20.1184 13.444C20.9867 13.444 21.8348 13.704 22.5556 14.1902C23.2763 14.6764 23.8368 15.3667 24.1676 16.173C24.4982 16.9792 24.5846 17.8659 24.416 18.7213C24.2474 19.5763 23.8315 20.3626 23.2195 20.9806C22.7558 21.4501 21.8753 22.2347 20.6058 23.3201C20.3264 23.559 19.915 23.5601 19.6342 23.3228C18.4268 22.302 17.5488 21.5185 17.0174 20.9807C16.4054 20.3627 15.9894 19.5763 15.8209 18.7213C15.6522 17.8659 15.7386 16.9792 16.0693 16.173C16.4 15.3667 16.9606 14.6764 17.6812 14.1902ZM20.1184 14.944C19.5501 14.944 18.9939 15.1141 18.5202 15.4337C18.0464 15.7534 17.676 16.2085 17.4571 16.7423C17.2381 17.2761 17.1807 17.864 17.2925 18.4312C17.4043 18.9983 17.68 19.5183 18.0837 19.9257L18.0844 19.9264C18.4973 20.3443 19.1709 20.9543 20.1161 21.7635C21.1203 20.8974 21.7945 20.2888 22.1524 19.9265L22.1532 19.9257C22.5568 19.5183 22.8325 18.9983 22.9443 18.4312C23.0561 17.864 22.9988 17.2761 22.7798 16.7423C22.5608 16.2085 22.1905 15.7534 21.7167 15.4337C21.243 15.1141 20.6868 14.944 20.1184 14.944ZM20.1184 17.1105C20.5326 17.1105 20.8684 17.4463 20.8684 17.8605V17.8727C20.8684 18.2869 20.5326 18.6227 20.1184 18.6227C19.7042 18.6227 19.3684 18.2869 19.3684 17.8727V17.8605C19.3684 17.4463 19.7042 17.1105 20.1184 17.1105Z" fill="currentColor"/>
</svg>
