<svg width="100%" height="100%" viewBox="0 0 23 23" fill="none" xmlns="http://www.w3.org/2000/svg">
<path fill-rule="evenodd" clip-rule="evenodd" d="M8.91667 1.5C8.80616 1.5 8.70018 1.5439 8.62204 1.62204C8.5439 1.70018 8.5 1.80616 8.5 1.91667V8.60601L12.947 13.053C13.0876 13.1937 13.1667 13.3844 13.1667 13.5833V21H21V1.91667C21 1.80616 20.9561 1.70018 20.878 1.62204C20.7998 1.5439 20.6938 1.5 20.5833 1.5H8.91667ZM11.6667 21V13.894L6.58333 8.81066L1.5 13.894V21H5.83333V17.0833C5.83333 16.6691 6.16912 16.3333 6.58333 16.3333C6.99755 16.3333 7.33333 16.6691 7.33333 17.0833V21H11.6667ZM7 7.12622C6.70852 6.93106 6.31046 6.96221 6.053 7.21967L0.21967 13.053C0.0790176 13.1937 0 13.3844 0 13.5833V21.75C0 22.1642 0.335786 22.5 0.75 22.5H21.75C22.1642 22.5 22.5 22.1642 22.5 21.75V1.91667C22.5 1.40834 22.2981 0.920824 21.9386 0.561379C21.5792 0.201933 21.0917 0 20.5833 0H8.91667C8.40833 0 7.92082 0.201934 7.56138 0.561379C7.20193 0.920823 7 1.40833 7 1.91667V7.12622ZM12.418 4.66699C12.8322 4.66699 13.168 5.00278 13.168 5.41699V5.42824C13.168 5.84246 12.8322 6.17824 12.418 6.17824C12.0038 6.17824 11.668 5.84246 11.668 5.42824V5.41699C11.668 5.00278 12.0038 4.66699 12.418 4.66699ZM17.832 5.41699C17.832 5.00278 17.4962 4.66699 17.082 4.66699C16.6678 4.66699 16.332 5.00278 16.332 5.41699V5.42824C16.332 5.84246 16.6678 6.17824 17.082 6.17824C17.4962 6.17824 17.832 5.84246 17.832 5.42824V5.41699ZM17.082 9.33301C17.4962 9.33301 17.832 9.66879 17.832 10.083V10.0943C17.832 10.5085 17.4962 10.8443 17.082 10.8443C16.6678 10.8443 16.332 10.5085 16.332 10.0943V10.083C16.332 9.66879 16.6678 9.33301 17.082 9.33301ZM17.832 14.75C17.832 14.3358 17.4962 14 17.082 14C16.6678 14 16.332 14.3358 16.332 14.75V14.7613C16.332 15.1755 16.6678 15.5113 17.082 15.5113C17.4962 15.5113 17.832 15.1755 17.832 14.7613V14.75Z" fill="currentColor"/>
</svg>
