<svg width="46" height="46" viewBox="0 0 46 46" fill="none" xmlns="http://www.w3.org/2000/svg">
  <!-- Outer circle -->
  <path
    class="circle"
    d="M22.6304 45.2608C35.1288 45.2608 45.2608 35.1288 45.2608 22.6304C45.2608 10.132 35.1288 0 22.6304 0C10.132 0 0 10.132 0 22.6304C0 35.1288 10.132 45.2608 22.6304 45.2608Z"
    fill="none"
  />
  <!-- Reddit head -->
  <path
    class="head"
    d="M37.7163 22.8282C37.6489 21.0327 36.117 19.6306 34.287 19.6915C33.476 19.7193 32.7048 20.0463 32.1193 20.5947C29.5403 18.8656 26.5107 17.9178 23.3966 17.8514L24.8661 10.8963L29.7145 11.8996C29.8494 13.1243 30.9645 14.0112 32.2089 13.8779C33.4534 13.7451 34.3545 12.6477 34.2191 11.4229C34.0837 10.1982 32.9691 9.31131 31.7246 9.44459C31.0093 9.51643 30.3674 9.92666 30.013 10.5366L24.4608 9.44459C24.0837 9.36135 23.7062 9.59421 23.6216 9.97125C23.6216 9.9767 23.6216 9.9767 23.6216 9.98215L21.9492 17.7186C18.7958 17.7687 15.727 18.7219 13.1142 20.462C11.7852 19.2317 9.69049 19.2927 8.4405 20.6061C7.19051 21.9141 7.25244 23.9757 8.587 25.2059C8.84626 25.4442 9.14428 25.6493 9.47654 25.7935C9.45389 26.1205 9.45389 26.4475 9.47654 26.7745C9.47654 31.7677 15.3892 35.8299 22.6812 35.8299C29.9732 35.8299 35.8859 31.7731 35.8859 26.7745C35.9086 26.4475 35.9086 26.1205 35.8859 25.7935C37.0236 25.2337 37.739 24.0807 37.7163 22.8282Z"
    fill="none"
  />
  <!-- Eyes and mouth -->
  <path
    class="face"
    d="M15.0625 25.0617C15.0625 23.8315 16.0819 22.8282 17.3319 22.8282C18.5819 22.8282 19.6013 23.8315 19.6013 25.0617C19.6013 26.2919 18.5819 27.2952 17.3319 27.2952C16.0764 27.2838 15.0625 26.2919 15.0625 25.0617ZM27.9128 27.4558C27.8735 27.4558 27.8398 27.4558 27.8 27.4558L27.8171 27.3725C26.5671 27.3725 25.5477 26.3692 25.5477 25.139C25.5477 23.9088 26.5671 22.9055 27.8171 22.9055C29.0671 22.9055 30.0865 23.9088 30.0865 25.139C30.1369 26.3697 29.1627 27.4057 27.9128 27.4558Z"
    fill="none"
  />
</svg>
