<svg width="32" height="28" viewBox="0 0 32 28" fill="none" xmlns="http://www.w3.org/2000/svg">
<path d="M31.9994 14.2115C31.9279 12.3073 30.3033 10.8203 28.3626 10.885C27.5025 10.9144 26.6846 11.2612 26.0637 11.8428C23.3286 10.0091 20.1157 9.00389 16.8131 8.93348L18.3715 1.5574L23.5133 2.62141C23.6564 3.92029 24.839 4.86082 26.1587 4.71948C27.4785 4.57866 28.4342 3.41482 28.2905 2.11594C28.1469 0.817063 26.9649 -0.123469 25.6451 0.0178735C24.8865 0.0940618 24.2058 0.529124 23.8299 1.17594L17.9417 0.0178735C17.5418 -0.0703998 17.1414 0.176555 17.0517 0.576413C17.0517 0.582192 17.0517 0.582193 17.0517 0.587973L15.2781 8.79267C11.9339 8.84573 8.67932 9.85667 5.90845 11.702C4.49899 10.3973 2.27749 10.462 0.951854 11.8549C-0.373785 13.2421 -0.308116 15.4284 1.10721 16.7331C1.38217 16.9858 1.69823 17.2033 2.05059 17.3562C2.02657 17.703 2.02657 18.0498 2.05059 18.3966C2.05059 23.6919 8.32108 28 16.0544 28C23.7877 28 30.0582 23.6977 30.0582 18.3966C30.0823 18.0498 30.0823 17.703 30.0582 17.3562C31.2648 16.7625 32.0235 15.5398 31.9994 14.2115ZM7.97459 16.5802C7.97459 15.2755 9.05571 14.2115 10.3813 14.2115C11.707 14.2115 12.7881 15.2755 12.7881 16.5802C12.7881 17.8848 11.707 18.9488 10.3813 18.9488C9.04983 18.9367 7.97459 17.8848 7.97459 16.5802ZM21.9309 23.1744V23.0803C20.223 24.344 18.1328 24.9903 15.9946 24.9026C13.8564 24.9908 11.7668 24.344 10.0583 23.0803C9.83144 22.8097 9.87308 22.4046 10.148 22.1813C10.3867 21.9874 10.7273 21.9874 10.9724 22.1813C12.4176 23.2217 14.1794 23.7508 15.9706 23.6683C17.7623 23.7624 19.53 23.2569 20.9929 22.2286C21.2555 21.9759 21.6853 21.9816 21.9426 22.2402C22.1994 22.4987 22.1936 22.9217 21.9309 23.1744ZM21.6026 19.1191C21.5609 19.1191 21.5251 19.1191 21.483 19.1191L21.5011 19.0308C20.1755 19.0308 19.0944 17.9668 19.0944 16.6621C19.0944 15.3575 20.1755 14.2935 21.5011 14.2935C22.8268 14.2935 23.9079 15.3575 23.9079 16.6621C23.9613 17.9673 22.9282 19.066 21.6026 19.1191Z" fill="#575757"/>
</svg>
