<svg width="29" height="27" viewBox="0 0 29 27" fill="none" xmlns="http://www.w3.org/2000/svg">
<path d="M10.8594 9.96386V5.24268H28.8344V9.96386H28.2864C26.9711 6.8896 25.1078 6.01124 23.135 6.01124H22.3678V22.7001C22.3678 25.1156 23.5734 25.5547 24.5598 25.6645V26.2135H15.0243V25.6645C15.9011 25.5547 17.326 25.1156 17.326 22.7001V6.01124H16.5588C14.8051 6.01124 12.7226 6.8896 11.4074 9.96386H10.8594Z" fill="#575757"/>
<path d="M0.53925 16.2268C1.2942 18.296 2.58839 20.583 5.50034 20.583C7.76519 20.583 9.38295 19.385 9.4908 16.9891C9.4908 14.4843 7.9809 13.3953 5.1768 12.1973C2.48055 10.9994 0 9.58361 0 5.98975C0 2.3959 2.8041 0 7.76519 0C9.81434 0 11.4321 0.326714 12.7263 0.544523V5.00961H12.187C11.4321 2.72262 10.03 0.762332 7.44164 0.762332C5.60819 0.762332 3.88259 1.96028 3.88259 4.13838C3.88259 6.42537 5.3925 7.51442 8.08875 8.49456C11.9713 10.0192 13.4812 12.0884 13.4812 15.0288C13.4812 19.4939 9.59864 21.3453 5.50034 21.3453C3.23549 21.3453 1.2942 21.0186 0 20.6919V16.2268H0.53925Z" fill="#575757"/>
</svg>
