<svg width="24" height="24" viewBox="0 0 24 24" fill="none" xmlns="http://www.w3.org/2000/svg">
<g clip-path="url(#clip0_1357_6159)">
<path d="M21 12.5V5C21 4.46957 20.7893 3.96086 20.4142 3.58579C20.0391 3.21071 19.5304 3 19 3H5C4.46957 3 3.96086 3.21071 3.58579 3.58579C3.21071 3.96086 3 4.46957 3 5V19C3 19.5304 3.21071 20.0391 3.58579 20.4142C3.96086 20.7893 4.46957 21 5 21H15.5" stroke="black" stroke-width="2" stroke-linecap="round" stroke-linejoin="round"/>
<path d="M19.5 22C19.7053 21.1513 20.1406 20.3755 20.7581 19.7581C21.3755 19.1406 22.1513 18.7053 23 18.5C22.1513 18.2947 21.3755 17.8594 20.7581 17.2419C20.1406 16.6245 19.7053 15.8487 19.5 15C19.2947 15.8487 18.8594 16.6245 18.2419 17.2419C17.6245 17.8594 16.8487 18.2947 16 18.5C16.8487 18.7053 17.6245 19.1406 18.2419 19.7581C18.8594 20.3755 19.2947 21.1513 19.5 22Z" stroke="black" stroke-width="2" stroke-linecap="round" stroke-linejoin="round"/>
</g>
<defs>
<clipPath id="clip0_1357_6159">
<rect width="24" height="24" fill="white"/>
</clipPath>
</defs>
</svg>
<svg width="24" height="24" viewBox="0 0 24 24" fill="none" xmlns="http://www.w3.org/2000/svg">
  <g clip-path="url(#clip0_1357_6159)">
    <path d="M21 12.5V5C21 4.46957 20.7893 3.96086 20.4142 3.58579C20.0391 3.21071 19.5304 3 19 3H5C4.46957 3 3.96086 3.21071 3.58579 3.58579C3.21071 3.96086 3 4.46957 3 5V19C3 19.5304 3.21071 20.0391 3.58579 20.4142C3.96086 20.7893 4.46957 21 5 21H15.5" 
      stroke="currentColor" stroke-width="2" stroke-linecap="round" stroke-linejoin="round"/>
    <path d="M19.5 22C19.7053 21.1513 20.1406 20.3755 20.7581 19.7581C21.3755 19.1406 22.1513 18.7053 23 18.5C22.1513 18.2947 21.3755 17.8594 20.7581 17.2419C20.1406 16.6245 19.7053 15.8487 19.5 15C19.2947 15.8487 18.8594 16.6245 18.2419 17.2419C17.6245 17.8594 16.8487 18.2947 16 18.5C16.8487 18.7053 17.6245 19.1406 18.2419 19.7581C18.8594 20.3755 19.2947 21.1513 19.5 22Z" 
      stroke="currentColor" stroke-width="2" stroke-linecap="round" stroke-linejoin="round"/>
  </g>
  <defs>
    <clipPath id="clip0_1357_6159">
      <rect width="24" height="24" fill="white"/>
    </clipPath>
  </defs>
</svg>
