<svg width="24" height="24" viewBox="0 0 24 26" fill="none" xmlns="http://www.w3.org/2000/svg">
  <g clip-path="url(#clip0_1357_6122)">
    <path d="M21 11.9999V7.98989C20.9994 7.64096 20.9066 7.29839 20.731 6.99687C20.5554 6.69535 20.3032 6.4456 20 6.27289L13 2.26489C12.6953 2.09129 12.3507 2 12 2C11.6493 2 11.3047 2.09129 11 2.26489L4 6.27289C3.381 6.62789 3 7.28289 3 7.99089V16.0089C3 16.7179 3.381 17.3719 4 17.7259L11 21.7339C11.62 22.0879 12.38 22.0879 13 21.7339" 
      stroke="currentColor" stroke-width="2" stroke-linecap="round" stroke-linejoin="round"/>
    <path d="M12 22V12" 
      stroke="currentColor" stroke-width="2" stroke-linecap="round" stroke-linejoin="round"/>
    <path d="M12 12L20.73 6.95996" 
      stroke="currentColor" stroke-width="2" stroke-linecap="round" stroke-linejoin="round"/>
    <path d="M3.26953 6.95996L11.9995 12" 
      stroke="currentColor" stroke-width="2" stroke-linecap="round" stroke-linejoin="round"/>
    <path d="M19 22.5C19.2053 21.6513 19.6406 20.8755 20.2581 20.2581C20.8755 19.6406 21.6513 19.2053 22.5 19C21.6513 18.7947 20.8755 18.3594 20.2581 17.7419C19.6406 17.1245 19.2053 16.3487 19 15.5C18.7947 16.3487 18.3594 17.1245 17.7419 17.7419C17.1245 18.3594 16.3487 18.7947 15.5 19C16.3487 19.2053 17.1245 19.6406 17.7419 20.2581C18.3594 20.8755 18.7947 21.6513 19 22.5Z" 
      stroke="currentColor" stroke-width="2" stroke-linecap="round" stroke-linejoin="round"/>
  </g>
  <defs>
    <clipPath id="clip0_1357_6122">
      <rect width="24" height="24" fill="white"/>
    </clipPath>
  </defs>
</svg>
