<svg width="16" height="16" viewBox="0 0 16 18" fill="none" xmlns="http://www.w3.org/2000/svg">
  <path d="M10.5 14C11.0523 14 11.5 13.5523 11.5 13C11.5 12.4477 11.0523 12 10.5 12C9.94772 12 9.5 12.4477 9.5 13C9.5 13.5523 9.94772 14 10.5 14Z" stroke="currentColor" stroke-width="1.5" />
  <path d="M10.5 4C11.0523 4 11.5 3.55228 11.5 3C11.5 2.44772 11.0523 2 10.5 2C9.94772 2 9.5 2.44772 9.5 3C9.5 3.55228 9.94772 4 10.5 4Z" stroke="currentColor" stroke-width="1.5" />
  <path d="M2 9C2.55228 9 3 8.55228 3 8C3 7.44772 2.55228 7 2 7C1.44772 7 1 7.44772 1 8C1 8.55228 1.44772 9 2 9Z" stroke="currentColor" stroke-width="1.5" />
  <path d="M14 6C13.5578 6.00132 13.1285 6.14929 12.7795 6.42073C12.4304 6.69218 12.1812 7.07176 12.071 7.5H9.929C9.85819 7.21803 9.72624 6.95507 9.5425 6.72977C9.35876 6.50446 9.12773 6.32231 8.86576 6.19622C8.6038 6.07012 8.31732 6.00318 8.0266 6.00012C7.73589 5.99705 7.44806 6.05795 7.1835 6.1785L5.595 4.1935C5.85639 3.8504 5.9986 3.43133 6 3C6 2.60444 5.8827 2.21776 5.66294 1.88886C5.44318 1.55996 5.13082 1.30362 4.76537 1.15224C4.39992 1.00087 3.99778 0.96126 3.60982 1.03843C3.22186 1.1156 2.86549 1.30608 2.58579 1.58579C2.30608 1.86549 2.1156 2.22186 2.03843 2.60982C1.96126 2.99778 2.00087 3.39992 2.15224 3.76537C2.30362 4.13082 2.55996 4.44318 2.88886 4.66294C3.21776 4.8827 3.60444 5 4 5C4.28187 4.99874 4.56029 4.93791 4.817 4.8215L6.405 6.8065C6.1425 7.149 6.00024 7.56848 6.00024 8C6.00024 8.43152 6.1425 8.851 6.405 9.1935L4.817 11.1785C4.56029 11.0621 4.28187 11.0013 4 11C3.60444 11 3.21776 11.1173 2.88886 11.3371C2.55996 11.5568 2.30362 11.8692 2.15224 12.2346C2.00087 12.6001 1.96126 13.0022 2.03843 13.3902C2.1156 13.7781 2.30608 14.1345 2.58579 14.4142C2.86549 14.6939 3.22186 14.8844 3.60982 14.9616C3.99778 15.0387 4.39992 14.9991 4.76537 14.8478C5.13082 14.6964 5.44318 14.44 5.66294 14.1111C5.8827 13.7822 6 13.3956 6 13C5.9986 12.5687 5.85639 12.1496 5.595 11.8065L7.183 9.8215C7.44759 9.94214 7.73546 10.0031 8.02624 10.0001C8.31701 9.99708 8.60356 9.93015 8.86559 9.80405C9.12761 9.67795 9.3587 9.49577 9.54247 9.27041C9.72624 9.04506 9.8582 8.78204 9.929 8.5H12.071C12.1652 8.86128 12.3587 9.18892 12.6297 9.44572C12.9007 9.70251 13.2383 9.87818 13.6041 9.95276C13.97 10.0273 14.3494 9.99785 14.6993 9.86764C15.0492 9.73743 15.3556 9.51172 15.5836 9.21614C15.8117 8.92055 15.9523 8.56694 15.9895 8.19545C16.0267 7.82396 15.959 7.44949 15.7941 7.11454C15.6292 6.7796 15.3736 6.49761 15.0565 6.3006C14.7394 6.10359 14.3733 5.99945 14 6Z" stroke="currentColor" stroke-width="1.5" />
</svg>
