<svg width="100%" height="100%" viewBox="0 0 20 20" fill="none" xmlns="http://www.w3.org/2000/svg">
<g clip-path="url(#clip0_1362_10395)">
<path d="M10.4896 2.15533C10.1771 1.84274 9.75329 1.66709 9.3113 1.66699H3.33464C2.89261 1.66699 2.46868 1.84259 2.15612 2.15515C1.84356 2.46771 1.66797 2.89163 1.66797 3.33366V9.31033C1.66806 9.75232 1.84372 10.1762 2.1563 10.4887L9.40964 17.742C9.7884 18.1184 10.3007 18.3296 10.8346 18.3296C11.3686 18.3296 11.8809 18.1184 12.2596 17.742L17.743 12.2587C18.1193 11.8799 18.3306 11.3676 18.3306 10.8337C18.3306 10.2997 18.1193 9.78742 17.743 9.40866L10.4896 2.15533Z" stroke="#333333" stroke-width="2" stroke-linecap="round" stroke-linejoin="round"/>
<path d="M6.2526 6.66732C6.48272 6.66732 6.66927 6.48077 6.66927 6.25065C6.66927 6.02053 6.48272 5.83398 6.2526 5.83398C6.02249 5.83398 5.83594 6.02053 5.83594 6.25065C5.83594 6.48077 6.02249 6.66732 6.2526 6.66732Z" fill="#333333" stroke="#333333" stroke-width="2" stroke-linecap="round" stroke-linejoin="round"/>
</g>
<defs>
<clipPath id="clip0_1362_10395">
<rect width="20" height="20" fill="white"/>
</clipPath>
</defs>
</svg>
